<svg height="53.592" viewBox="0 0 189.613 53.592" width="189.613" xmlns="http://www.w3.org/2000/svg"><g fill="#fff" transform="translate(-697.436 231)"><path d="m995.252-173.65a3.067 3.067 0 0 0 -1.119-1.651 3.241 3.241 0 0 0 -1.971-.586 2.845 2.845 0 0 0 -2.947 2.094 8.347 8.347 0 0 0 -.248 1.136.157.157 0 0 0 .177.178h6.142q.213 0 .142-.178-.176-1.029-.176-.993z" transform="translate(-166.84 -31.54)"/><path d="m887.918-173.65a3.068 3.068 0 0 0 -1.118-1.65 3.242 3.242 0 0 0 -1.971-.586 2.845 2.845 0 0 0 -2.947 2.094 8.383 8.383 0 0 0 -.249 1.136.157.157 0 0 0 .177.178h6.143q.213 0 .142-.178-.177-1.03-.177-.994z" transform="translate(-105.414 -31.54)"/><path d="m875.424-193.6v-31.02a6.378 6.378 0 0 0 -6.378-6.38h-165.232a6.378 6.378 0 0 0 -6.378 6.378v40.836a6.378 6.378 0 0 0 6.378 6.378h183.235zm-152.995-14.254a.411.411 0 0 1 -.124.3.41.41 0 0 1 -.3.124h-3.409a.157.157 0 0 0 -.177.177v7.527a2.654 2.654 0 0 0 .479 1.74 1.912 1.912 0 0 0 1.544.568h1.172a.411.411 0 0 1 .3.124.412.412 0 0 1 .125.3v3.373a.438.438 0 0 1 -.426.462q-1.491.071-2.131.071a7.981 7.981 0 0 1 -4.4-.976q-1.456-.977-1.491-3.675v-9.515a.157.157 0 0 0 -.178-.177h-2.023a.41.41 0 0 1 -.3-.124.408.408 0 0 1 -.124-.3v-3.16a.409.409 0 0 1 .124-.3.41.41 0 0 1 .3-.124h2.023a.157.157 0 0 0 .178-.178v-4.225a.411.411 0 0 1 .124-.3.41.41 0 0 1 .3-.124h3.976a.413.413 0 0 1 .3.124.413.413 0 0 1 .124.3v4.225a.157.157 0 0 0 .177.178h3.408a.41.41 0 0 1 .3.124.412.412 0 0 1 .124.3zm14.344-2.8-.746 4.048q-.036.426-.5.249a3.931 3.931 0 0 0 -1.243-.178 5.841 5.841 0 0 0 -.782.071 3.491 3.491 0 0 0 -2.166.941 2.9 2.9 0 0 0 -.887 2.219v9.693a.413.413 0 0 1 -.124.3.413.413 0 0 1 -.3.124h-4.154a.409.409 0 0 1 -.3-.124.408.408 0 0 1 -.125-.3v-17.4a.409.409 0 0 1 .125-.3.409.409 0 0 1 .3-.124h4.154a.413.413 0 0 1 .3.124.414.414 0 0 1 .124.3v1.349a.142.142 0 0 0 .071.142.07.07 0 0 0 .106-.035 4.509 4.509 0 0 1 3.906-2.13 3.608 3.608 0 0 1 2.023.5.442.442 0 0 1 .218.526zm17.927 17.038a.411.411 0 0 1 -.124.3.412.412 0 0 1 -.3.124h-4.154a.41.41 0 0 1 -.3-.124.409.409 0 0 1 -.124-.3v-1.207c0-.071-.024-.112-.071-.124s-.095.018-.142.089a5.119 5.119 0 0 1 -4.4 1.917 6.223 6.223 0 0 1 -4.438-1.633 5.973 5.973 0 0 1 -1.74-4.58v-11.859a.409.409 0 0 1 .125-.3.409.409 0 0 1 .3-.124h4.118a.411.411 0 0 1 .3.124.412.412 0 0 1 .124.3v10.613a3.409 3.409 0 0 0 .764 2.308 2.636 2.636 0 0 0 2.112.887 2.8 2.8 0 0 0 1.989-.728 3.161 3.161 0 0 0 .958-1.9v-11.184a.41.41 0 0 1 .124-.3.41.41 0 0 1 .3-.124h4.154a.412.412 0 0 1 .3.124.413.413 0 0 1 .124.3zm15.018-17.043-.746 4.048q-.036.426-.5.249a3.93 3.93 0 0 0 -1.242-.178 5.828 5.828 0 0 0 -.781.071 3.491 3.491 0 0 0 -2.166.941 2.9 2.9 0 0 0 -.888 2.219v9.693a.412.412 0 0 1 -.124.3.413.413 0 0 1 -.3.124h-4.154a.409.409 0 0 1 -.3-.124.408.408 0 0 1 -.124-.3v-17.4a.41.41 0 0 1 .124-.3.409.409 0 0 1 .3-.124h4.154a.413.413 0 0 1 .3.124.413.413 0 0 1 .124.3v1.349a.143.143 0 0 0 .071.142.07.07 0 0 0 .106-.035 4.509 4.509 0 0 1 3.906-2.13 3.608 3.608 0 0 1 2.023.5.44.44 0 0 1 .221.531zm18.109 9.48a.414.414 0 0 1 -.461.426h-10.966c-.142 0-.19.059-.142.178a6.308 6.308 0 0 0 .391 1.42q.922 1.989 3.763 1.988a4.283 4.283 0 0 0 3.588-1.846.394.394 0 0 1 .32-.213.391.391 0 0 1 .248.142l2.557 2.521a.494.494 0 0 1 .177.32.737.737 0 0 1 -.142.284 7.743 7.743 0 0 1 -3.018 2.254 10.085 10.085 0 0 1 -4.047.8 9.218 9.218 0 0 1 -5.166-1.385 7.685 7.685 0 0 1 -3.036-3.87 12.173 12.173 0 0 1 -.746-4.651 10.218 10.218 0 0 1 .533-3.444 7.8 7.8 0 0 1 2.858-4.012 7.993 7.993 0 0 1 4.846-1.491 7.893 7.893 0 0 1 5.7 2.059 9.013 9.013 0 0 1 2.61 5.5 15.3 15.3 0 0 1 .136 3.021zm17.93-9.729-5.645 17.363a.446.446 0 0 1 -.462.355h-4.65a.445.445 0 0 1 -.462-.355l-5.681-17.434a.4.4 0 0 1 -.035-.177q0-.32.391-.32h4.58a.469.469 0 0 1 .5.355l2.911 10.758c.024.071.059.106.107.106s.083-.035.106-.106l2.912-10.758a.468.468 0 0 1 .5-.355l4.58.071a.4.4 0 0 1 .319.124.389.389 0 0 1 .033.374zm7.776 17.292a.412.412 0 0 1 -.124.3.413.413 0 0 1 -.3.124h-4.154a.409.409 0 0 1 -.3-.124.408.408 0 0 1 -.124-.3v-17.434a.409.409 0 0 1 .124-.3.409.409 0 0 1 .3-.124h4.154a.413.413 0 0 1 .3.124.414.414 0 0 1 .124.3zm-.444-20.682a2.721 2.721 0 0 1 -2.006.8 2.72 2.72 0 0 1 -2.006-.8 2.722 2.722 0 0 1 -.8-2.006 2.739 2.739 0 0 1 .781-2.024 2.739 2.739 0 0 1 2.024-.781 2.741 2.741 0 0 1 2.024.781 2.742 2.742 0 0 1 .781 2.024 2.72 2.72 0 0 1 -.795 2.004zm20.647 13.119a.414.414 0 0 1 -.462.426h-10.968c-.142 0-.19.059-.142.178a6.32 6.32 0 0 0 .39 1.42q.923 1.989 3.764 1.988a4.283 4.283 0 0 0 3.586-1.846.394.394 0 0 1 .319-.213.392.392 0 0 1 .249.142l2.557 2.521a.493.493 0 0 1 .177.32.736.736 0 0 1 -.142.284 7.743 7.743 0 0 1 -3.018 2.254 10.085 10.085 0 0 1 -4.047.8 9.218 9.218 0 0 1 -5.166-1.385 7.686 7.686 0 0 1 -3.035-3.87 12.173 12.173 0 0 1 -.746-4.651 10.225 10.225 0 0 1 .533-3.444 7.805 7.805 0 0 1 2.858-4.012 7.993 7.993 0 0 1 4.846-1.491 7.893 7.893 0 0 1 5.7 2.059 9.013 9.013 0 0 1 2.61 5.5 15.3 15.3 0 0 1 .14 3.021zm27.232-9.764-5.184 17.4a.446.446 0 0 1 -.462.355h-4.3a.468.468 0 0 1 -.5-.355l-2.722-9.517c-.023-.071-.059-.106-.106-.106s-.083.035-.106.106l-2.414 9.516a.468.468 0 0 1 -.5.355h-4.3a.468.468 0 0 1 -.5-.355l-5.113-17.434-.035-.142c0-.236.13-.355.391-.355h4.3a.468.468 0 0 1 .5.355l2.557 10.723q.035.106.107.106t.107-.106l2.663-10.723a.468.468 0 0 1 .5-.355h3.728a.468.468 0 0 1 .5.355l2.8 10.758c.024.071.059.106.107.106s.083-.035.106-.106l2.77-10.758a.468.468 0 0 1 .5-.355l4.261.071a.346.346 0 0 1 .3.124.443.443 0 0 1 .048.337z"/></g></svg>